<svg xmlns="http://www.w3.org/2000/svg" xmlns:xlink="http://www.w3.org/1999/xlink" width="150" zoomAndPan="magnify" viewBox="0 0 112.5 30.000001" height="40" preserveAspectRatio="xMidYMid meet" version="1.0"><defs><g/><clipPath id="1d69199c09"><path d="M 1.574219 0 L 110.445312 0 L 110.445312 29.03125 L 1.574219 29.03125 Z M 1.574219 0 " clip-rule="nonzero"/></clipPath></defs><g clip-path="url(#1d69199c09)"><path fill="#ffffff" d="M 1.574219 0 L 110.445312 0 L 110.445312 29.03125 L 1.574219 29.03125 Z M 1.574219 0 " fill-opacity="1" fill-rule="nonzero"/><path fill="#000000" d="M 1.574219 0 L 110.445312 0 L 110.445312 29.03125 L 1.574219 29.03125 Z M 1.574219 0 " fill-opacity="1" fill-rule="nonzero"/></g><g fill="#ffffff" fill-opacity="1"><g transform="translate(13.102719, 12.115843)"><g><path d="M 0.671875 0 C 0.628906 0 0.59375 -0.0078125 0.5625 -0.03125 C 0.539062 -0.0625 0.53125 -0.0976562 0.53125 -0.140625 L 0.53125 -8.1875 C 0.53125 -8.226562 0.539062 -8.257812 0.5625 -8.28125 C 0.59375 -8.3125 0.628906 -8.328125 0.671875 -8.328125 L 2.828125 -8.328125 C 3.546875 -8.328125 4.125 -8.117188 4.5625 -7.703125 C 5 -7.285156 5.21875 -6.726562 5.21875 -6.03125 L 5.21875 -2.3125 C 5.21875 -1.613281 5 -1.050781 4.5625 -0.625 C 4.125 -0.207031 3.546875 0 2.828125 0 Z M 2.203125 -1.5 C 2.203125 -1.457031 2.222656 -1.4375 2.265625 -1.4375 L 2.796875 -1.453125 C 3.015625 -1.460938 3.191406 -1.550781 3.328125 -1.71875 C 3.460938 -1.894531 3.53125 -2.128906 3.53125 -2.421875 L 3.53125 -5.921875 C 3.53125 -6.222656 3.460938 -6.457031 3.328125 -6.625 C 3.191406 -6.800781 3.007812 -6.890625 2.78125 -6.890625 L 2.265625 -6.890625 C 2.222656 -6.890625 2.203125 -6.867188 2.203125 -6.828125 Z M 2.203125 -1.5 "/></g></g></g><g fill="#ffffff" fill-opacity="1"><g transform="translate(18.769286, 12.115843)"><g><path d="M 2.625 0.09375 C 1.925781 0.09375 1.375 -0.0820312 0.96875 -0.4375 C 0.570312 -0.789062 0.375 -1.28125 0.375 -1.90625 L 0.375 -4.21875 C 0.375 -4.820312 0.570312 -5.304688 0.96875 -5.671875 C 1.375 -6.035156 1.925781 -6.21875 2.625 -6.21875 C 3.332031 -6.21875 3.890625 -6.035156 4.296875 -5.671875 C 4.703125 -5.304688 4.90625 -4.820312 4.90625 -4.21875 L 4.90625 -1.90625 C 4.90625 -1.28125 4.703125 -0.789062 4.296875 -0.4375 C 3.898438 -0.0820312 3.34375 0.09375 2.625 0.09375 Z M 2.625 -1.359375 C 2.800781 -1.359375 2.945312 -1.421875 3.0625 -1.546875 C 3.175781 -1.671875 3.234375 -1.832031 3.234375 -2.03125 L 3.234375 -4.09375 C 3.234375 -4.289062 3.175781 -4.453125 3.0625 -4.578125 C 2.945312 -4.710938 2.800781 -4.78125 2.625 -4.78125 C 2.457031 -4.78125 2.316406 -4.710938 2.203125 -4.578125 C 2.097656 -4.453125 2.046875 -4.289062 2.046875 -4.09375 L 2.046875 -2.03125 C 2.046875 -1.832031 2.097656 -1.671875 2.203125 -1.546875 C 2.316406 -1.421875 2.457031 -1.359375 2.625 -1.359375 Z M 2.625 -1.359375 "/></g></g></g><g fill="#ffffff" fill-opacity="1"><g transform="translate(24.031098, 12.115843)"><g><path d="M 2.625 0.09375 C 1.925781 0.09375 1.375 -0.0820312 0.96875 -0.4375 C 0.570312 -0.789062 0.375 -1.28125 0.375 -1.90625 L 0.375 -4.21875 C 0.375 -4.820312 0.570312 -5.304688 0.96875 -5.671875 C 1.375 -6.035156 1.925781 -6.21875 2.625 -6.21875 C 3.320312 -6.21875 3.867188 -6.035156 4.265625 -5.671875 C 4.671875 -5.316406 4.875 -4.851562 4.875 -4.28125 L 4.875 -4.078125 C 4.875 -4.035156 4.859375 -4 4.828125 -3.96875 C 4.796875 -3.9375 4.765625 -3.921875 4.734375 -3.921875 L 3.328125 -3.875 C 3.234375 -3.875 3.1875 -3.921875 3.1875 -4.015625 L 3.1875 -4.15625 C 3.1875 -4.332031 3.132812 -4.476562 3.03125 -4.59375 C 2.925781 -4.71875 2.789062 -4.78125 2.625 -4.78125 C 2.445312 -4.78125 2.304688 -4.710938 2.203125 -4.578125 C 2.097656 -4.453125 2.046875 -4.285156 2.046875 -4.078125 L 2.046875 -2.03125 C 2.046875 -1.820312 2.097656 -1.65625 2.203125 -1.53125 C 2.304688 -1.40625 2.445312 -1.34375 2.625 -1.34375 C 2.789062 -1.34375 2.925781 -1.40625 3.03125 -1.53125 C 3.132812 -1.65625 3.1875 -1.800781 3.1875 -1.96875 L 3.1875 -2.125 C 3.1875 -2.15625 3.203125 -2.1875 3.234375 -2.21875 C 3.265625 -2.25 3.296875 -2.265625 3.328125 -2.265625 L 4.734375 -2.25 C 4.765625 -2.25 4.796875 -2.234375 4.828125 -2.203125 C 4.859375 -2.179688 4.875 -2.148438 4.875 -2.109375 L 4.875 -1.828125 C 4.875 -1.242188 4.671875 -0.773438 4.265625 -0.421875 C 3.867188 -0.078125 3.320312 0.09375 2.625 0.09375 Z M 2.625 0.09375 "/></g></g></g><g fill="#ffffff" fill-opacity="1"><g transform="translate(29.197675, 12.115843)"><g><path d="M 3.1875 -5.984375 C 3.1875 -6.015625 3.203125 -6.046875 3.234375 -6.078125 C 3.265625 -6.109375 3.296875 -6.125 3.328125 -6.125 L 4.734375 -6.125 C 4.765625 -6.125 4.796875 -6.109375 4.828125 -6.078125 C 4.859375 -6.046875 4.875 -6.015625 4.875 -5.984375 L 4.875 -0.140625 C 4.875 -0.0976562 4.859375 -0.0625 4.828125 -0.03125 C 4.796875 -0.0078125 4.765625 0 4.734375 0 L 3.328125 0 C 3.296875 0 3.265625 -0.0078125 3.234375 -0.03125 C 3.203125 -0.0625 3.1875 -0.0976562 3.1875 -0.140625 L 3.1875 -0.34375 C 3.1875 -0.363281 3.175781 -0.378906 3.15625 -0.390625 C 3.144531 -0.398438 3.132812 -0.394531 3.125 -0.375 C 3 -0.207031 2.847656 -0.0859375 2.671875 -0.015625 C 2.492188 0.046875 2.285156 0.078125 2.046875 0.078125 C 1.566406 0.078125 1.171875 -0.0625 0.859375 -0.34375 C 0.554688 -0.632812 0.40625 -1.082031 0.40625 -1.6875 L 0.40625 -5.984375 C 0.40625 -6.015625 0.414062 -6.046875 0.4375 -6.078125 C 0.46875 -6.109375 0.503906 -6.125 0.546875 -6.125 L 1.9375 -6.125 C 1.976562 -6.125 2.007812 -6.109375 2.03125 -6.078125 C 2.0625 -6.046875 2.078125 -6.015625 2.078125 -5.984375 L 2.078125 -2.0625 C 2.078125 -1.832031 2.125 -1.65625 2.21875 -1.53125 C 2.3125 -1.40625 2.445312 -1.34375 2.625 -1.34375 C 2.789062 -1.34375 2.925781 -1.410156 3.03125 -1.546875 C 3.132812 -1.679688 3.1875 -1.863281 3.1875 -2.09375 Z M 3.1875 -5.984375 "/></g></g></g><g fill="#ffffff" fill-opacity="1"><g transform="translate(34.519011, 12.115843)"><g><path d="M 6.015625 -6.21875 C 6.554688 -6.21875 6.957031 -6.035156 7.21875 -5.671875 C 7.488281 -5.304688 7.625 -4.789062 7.625 -4.125 L 7.625 -0.140625 C 7.625 -0.0976562 7.609375 -0.0625 7.578125 -0.03125 C 7.554688 -0.0078125 7.523438 0 7.484375 0 L 6.09375 0 C 6.050781 0 6.015625 -0.0078125 5.984375 -0.03125 C 5.960938 -0.0625 5.953125 -0.0976562 5.953125 -0.140625 L 5.953125 -4.03125 C 5.953125 -4.257812 5.90625 -4.441406 5.8125 -4.578125 C 5.71875 -4.710938 5.585938 -4.78125 5.421875 -4.78125 C 5.253906 -4.78125 5.117188 -4.710938 5.015625 -4.578125 C 4.921875 -4.441406 4.875 -4.257812 4.875 -4.03125 L 4.875 -0.140625 C 4.875 -0.0976562 4.859375 -0.0625 4.828125 -0.03125 C 4.796875 -0.0078125 4.765625 0 4.734375 0 L 3.34375 0 C 3.300781 0 3.265625 -0.0078125 3.234375 -0.03125 C 3.210938 -0.0625 3.203125 -0.0976562 3.203125 -0.140625 L 3.203125 -4.03125 C 3.203125 -4.257812 3.15625 -4.441406 3.0625 -4.578125 C 2.96875 -4.710938 2.835938 -4.78125 2.671875 -4.78125 C 2.503906 -4.78125 2.367188 -4.710938 2.265625 -4.578125 C 2.171875 -4.441406 2.125 -4.257812 2.125 -4.03125 L 2.125 -0.140625 C 2.125 -0.0976562 2.109375 -0.0625 2.078125 -0.03125 C 2.046875 -0.0078125 2.007812 0 1.96875 0 L 0.578125 0 C 0.546875 0 0.515625 -0.0078125 0.484375 -0.03125 C 0.453125 -0.0625 0.4375 -0.0976562 0.4375 -0.140625 L 0.4375 -5.984375 C 0.4375 -6.015625 0.453125 -6.046875 0.484375 -6.078125 C 0.515625 -6.109375 0.546875 -6.125 0.578125 -6.125 L 1.96875 -6.125 C 2.007812 -6.125 2.046875 -6.109375 2.078125 -6.078125 C 2.109375 -6.046875 2.125 -6.015625 2.125 -5.984375 L 2.125 -5.828125 C 2.125 -5.796875 2.128906 -5.773438 2.140625 -5.765625 C 2.160156 -5.765625 2.175781 -5.769531 2.1875 -5.78125 C 2.34375 -5.945312 2.515625 -6.0625 2.703125 -6.125 C 2.898438 -6.1875 3.085938 -6.21875 3.265625 -6.21875 C 3.878906 -6.21875 4.320312 -5.972656 4.59375 -5.484375 L 4.625 -5.46875 C 4.644531 -5.46875 4.671875 -5.488281 4.703125 -5.53125 C 4.867188 -5.789062 5.066406 -5.96875 5.296875 -6.0625 C 5.535156 -6.164062 5.773438 -6.21875 6.015625 -6.21875 Z M 6.015625 -6.21875 "/></g></g></g><g fill="#ffffff" fill-opacity="1"><g transform="translate(42.554591, 12.115843)"><g><path d="M 4.875 -2.671875 C 4.875 -2.640625 4.859375 -2.609375 4.828125 -2.578125 C 4.796875 -2.546875 4.765625 -2.53125 4.734375 -2.53125 L 2.109375 -2.53125 C 2.066406 -2.53125 2.046875 -2.507812 2.046875 -2.46875 L 2.046875 -2.03125 C 2.046875 -1.832031 2.097656 -1.664062 2.203125 -1.53125 C 2.316406 -1.40625 2.457031 -1.34375 2.625 -1.34375 C 2.769531 -1.34375 2.890625 -1.390625 2.984375 -1.484375 C 3.078125 -1.585938 3.140625 -1.71875 3.171875 -1.875 C 3.203125 -1.945312 3.253906 -1.984375 3.328125 -1.984375 L 4.703125 -1.921875 C 4.742188 -1.921875 4.773438 -1.90625 4.796875 -1.875 C 4.828125 -1.84375 4.835938 -1.804688 4.828125 -1.765625 C 4.773438 -1.148438 4.5625 -0.6875 4.1875 -0.375 C 3.820312 -0.0625 3.300781 0.09375 2.625 0.09375 C 1.914062 0.09375 1.363281 -0.0820312 0.96875 -0.4375 C 0.570312 -0.789062 0.375 -1.28125 0.375 -1.90625 L 0.375 -4.21875 C 0.375 -4.820312 0.570312 -5.304688 0.96875 -5.671875 C 1.375 -6.035156 1.925781 -6.21875 2.625 -6.21875 C 3.320312 -6.21875 3.867188 -6.035156 4.265625 -5.671875 C 4.671875 -5.304688 4.875 -4.820312 4.875 -4.21875 Z M 2.625 -4.78125 C 2.457031 -4.78125 2.316406 -4.710938 2.203125 -4.578125 C 2.097656 -4.453125 2.046875 -4.289062 2.046875 -4.09375 L 2.046875 -3.625 C 2.046875 -3.59375 2.066406 -3.578125 2.109375 -3.578125 L 3.125 -3.578125 C 3.164062 -3.578125 3.1875 -3.59375 3.1875 -3.625 L 3.1875 -4.09375 C 3.1875 -4.289062 3.132812 -4.453125 3.03125 -4.578125 C 2.925781 -4.710938 2.789062 -4.78125 2.625 -4.78125 Z M 2.625 -4.78125 "/></g></g></g><g fill="#ffffff" fill-opacity="1"><g transform="translate(47.744981, 12.115843)"><g><path d="M 3.296875 -6.21875 C 3.835938 -6.21875 4.242188 -6.035156 4.515625 -5.671875 C 4.785156 -5.316406 4.921875 -4.816406 4.921875 -4.171875 L 4.921875 -0.140625 C 4.921875 -0.0976562 4.90625 -0.0625 4.875 -0.03125 C 4.84375 -0.0078125 4.8125 0 4.78125 0 L 3.375 0 C 3.34375 0 3.3125 -0.0078125 3.28125 -0.03125 C 3.25 -0.0625 3.234375 -0.0976562 3.234375 -0.140625 L 3.234375 -4.046875 C 3.234375 -4.273438 3.1875 -4.453125 3.09375 -4.578125 C 3.007812 -4.710938 2.878906 -4.78125 2.703125 -4.78125 C 2.515625 -4.78125 2.367188 -4.710938 2.265625 -4.578125 C 2.171875 -4.441406 2.125 -4.257812 2.125 -4.03125 L 2.125 -0.140625 C 2.125 -0.0976562 2.109375 -0.0625 2.078125 -0.03125 C 2.054688 -0.0078125 2.023438 0 1.984375 0 L 0.59375 0 C 0.550781 0 0.515625 -0.0078125 0.484375 -0.03125 C 0.460938 -0.0625 0.453125 -0.0976562 0.453125 -0.140625 L 0.453125 -5.984375 C 0.453125 -6.015625 0.460938 -6.046875 0.484375 -6.078125 C 0.515625 -6.109375 0.550781 -6.125 0.59375 -6.125 L 1.984375 -6.125 C 2.023438 -6.125 2.054688 -6.109375 2.078125 -6.078125 C 2.109375 -6.046875 2.125 -6.015625 2.125 -5.984375 L 2.125 -5.75 C 2.125 -5.726562 2.132812 -5.71875 2.15625 -5.71875 C 2.175781 -5.71875 2.203125 -5.734375 2.234375 -5.765625 C 2.492188 -6.066406 2.847656 -6.21875 3.296875 -6.21875 Z M 3.296875 -6.21875 "/></g></g></g><g fill="#ffffff" fill-opacity="1"><g transform="translate(53.066317, 12.115843)"><g><path d="M 3.234375 -5.078125 C 3.234375 -5.046875 3.21875 -5.015625 3.1875 -4.984375 C 3.164062 -4.953125 3.132812 -4.9375 3.09375 -4.9375 L 2.421875 -4.9375 C 2.390625 -4.9375 2.375 -4.914062 2.375 -4.875 L 2.375 -2.046875 C 2.375 -1.816406 2.414062 -1.65625 2.5 -1.5625 C 2.582031 -1.476562 2.710938 -1.441406 2.890625 -1.453125 L 2.96875 -1.453125 C 3.007812 -1.453125 3.046875 -1.4375 3.078125 -1.40625 C 3.109375 -1.382812 3.125 -1.351562 3.125 -1.3125 L 3.125 -0.140625 C 3.125 -0.0976562 3.109375 -0.0625 3.078125 -0.03125 C 3.046875 -0.0078125 3.007812 0 2.96875 0 L 2.5 0 C 1.914062 0 1.476562 -0.09375 1.1875 -0.28125 C 0.894531 -0.476562 0.75 -0.851562 0.75 -1.40625 L 0.75 -4.875 C 0.75 -4.914062 0.726562 -4.9375 0.6875 -4.9375 L 0.296875 -4.9375 C 0.253906 -4.9375 0.21875 -4.953125 0.1875 -4.984375 C 0.164062 -5.015625 0.15625 -5.046875 0.15625 -5.078125 L 0.15625 -5.984375 C 0.15625 -6.015625 0.164062 -6.046875 0.1875 -6.078125 C 0.21875 -6.109375 0.253906 -6.125 0.296875 -6.125 L 0.6875 -6.125 C 0.726562 -6.125 0.75 -6.140625 0.75 -6.171875 L 0.75 -7.5 C 0.75 -7.539062 0.757812 -7.570312 0.78125 -7.59375 C 0.8125 -7.625 0.847656 -7.640625 0.890625 -7.640625 L 2.21875 -7.640625 C 2.257812 -7.640625 2.296875 -7.625 2.328125 -7.59375 C 2.359375 -7.570312 2.375 -7.539062 2.375 -7.5 L 2.375 -6.171875 C 2.375 -6.140625 2.390625 -6.125 2.421875 -6.125 L 3.09375 -6.125 C 3.132812 -6.125 3.164062 -6.109375 3.1875 -6.078125 C 3.21875 -6.046875 3.234375 -6.015625 3.234375 -5.984375 Z M 3.234375 -5.078125 "/></g></g></g><g fill="#ffffff" fill-opacity="1"><g transform="translate(56.530546, 12.115843)"><g/></g></g><g fill="#ffffff" fill-opacity="1"><g transform="translate(58.911457, 12.115843)"><g><path d="M 5.140625 -8.328125 C 5.179688 -8.328125 5.210938 -8.3125 5.234375 -8.28125 C 5.265625 -8.257812 5.28125 -8.226562 5.28125 -8.1875 L 5.28125 -7.03125 C 5.28125 -7 5.265625 -6.96875 5.234375 -6.9375 C 5.210938 -6.90625 5.179688 -6.890625 5.140625 -6.890625 L 3.65625 -6.890625 C 3.613281 -6.890625 3.59375 -6.867188 3.59375 -6.828125 L 3.59375 -0.140625 C 3.59375 -0.0976562 3.578125 -0.0625 3.546875 -0.03125 C 3.523438 -0.0078125 3.492188 0 3.453125 0 L 2.0625 0 C 2.019531 0 1.984375 -0.0078125 1.953125 -0.03125 C 1.929688 -0.0625 1.921875 -0.0976562 1.921875 -0.140625 L 1.921875 -6.828125 C 1.921875 -6.867188 1.898438 -6.890625 1.859375 -6.890625 L 0.421875 -6.890625 C 0.390625 -6.890625 0.359375 -6.90625 0.328125 -6.9375 C 0.296875 -6.96875 0.28125 -7 0.28125 -7.03125 L 0.28125 -8.1875 C 0.28125 -8.226562 0.296875 -8.257812 0.328125 -8.28125 C 0.359375 -8.3125 0.390625 -8.328125 0.421875 -8.328125 Z M 5.140625 -8.328125 "/></g></g></g><g fill="#ffffff" fill-opacity="1"><g transform="translate(64.482788, 12.115843)"><g><path d="M 3.1875 -6.1875 C 3.40625 -6.1875 3.570312 -6.148438 3.6875 -6.078125 C 3.75 -6.035156 3.773438 -5.972656 3.765625 -5.890625 L 3.53125 -4.5 C 3.53125 -4.414062 3.476562 -4.382812 3.375 -4.40625 C 3.28125 -4.4375 3.171875 -4.453125 3.046875 -4.453125 C 2.929688 -4.453125 2.828125 -4.4375 2.734375 -4.40625 C 2.554688 -4.375 2.410156 -4.265625 2.296875 -4.078125 C 2.179688 -3.890625 2.125 -3.671875 2.125 -3.421875 L 2.125 -0.15625 C 2.125 -0.113281 2.109375 -0.078125 2.078125 -0.046875 C 2.054688 -0.0234375 2.023438 -0.015625 1.984375 -0.015625 L 0.59375 -0.015625 C 0.550781 -0.015625 0.515625 -0.0234375 0.484375 -0.046875 C 0.460938 -0.078125 0.453125 -0.113281 0.453125 -0.15625 L 0.453125 -5.984375 C 0.453125 -6.015625 0.460938 -6.046875 0.484375 -6.078125 C 0.515625 -6.109375 0.550781 -6.125 0.59375 -6.125 L 1.984375 -6.125 C 2.023438 -6.125 2.054688 -6.109375 2.078125 -6.078125 C 2.109375 -6.046875 2.125 -6.015625 2.125 -5.984375 L 2.125 -5.515625 C 2.125 -5.484375 2.128906 -5.460938 2.140625 -5.453125 C 2.160156 -5.453125 2.175781 -5.460938 2.1875 -5.484375 C 2.40625 -5.953125 2.738281 -6.1875 3.1875 -6.1875 Z M 3.1875 -6.1875 "/></g></g></g><g fill="#ffffff" fill-opacity="1"><g transform="translate(68.339865, 12.115843)"><g><path d="M 2.671875 -6.21875 C 3.335938 -6.21875 3.878906 -6.035156 4.296875 -5.671875 C 4.722656 -5.304688 4.9375 -4.828125 4.9375 -4.234375 L 4.9375 -0.140625 C 4.9375 -0.0976562 4.921875 -0.0625 4.890625 -0.03125 C 4.867188 -0.0078125 4.835938 0 4.796875 0 L 3.40625 0 C 3.363281 0 3.328125 -0.0078125 3.296875 -0.03125 C 3.273438 -0.0625 3.265625 -0.0976562 3.265625 -0.140625 L 3.265625 -0.40625 C 3.265625 -0.425781 3.253906 -0.441406 3.234375 -0.453125 C 3.222656 -0.460938 3.207031 -0.453125 3.1875 -0.421875 C 2.925781 -0.0859375 2.519531 0.0820312 1.96875 0.09375 C 1.507812 0.09375 1.113281 -0.03125 0.78125 -0.28125 C 0.445312 -0.539062 0.28125 -1.023438 0.28125 -1.734375 C 0.28125 -2.472656 0.484375 -2.976562 0.890625 -3.25 C 1.296875 -3.53125 1.882812 -3.671875 2.65625 -3.671875 L 3.203125 -3.671875 C 3.242188 -3.671875 3.265625 -3.691406 3.265625 -3.734375 L 3.265625 -4.03125 C 3.265625 -4.25 3.207031 -4.425781 3.09375 -4.5625 C 2.976562 -4.707031 2.832031 -4.78125 2.65625 -4.78125 C 2.519531 -4.78125 2.40625 -4.738281 2.3125 -4.65625 C 2.21875 -4.570312 2.160156 -4.453125 2.140625 -4.296875 C 2.128906 -4.203125 2.078125 -4.15625 1.984375 -4.15625 L 0.5625 -4.171875 C 0.46875 -4.171875 0.421875 -4.21875 0.421875 -4.3125 C 0.453125 -4.882812 0.675781 -5.34375 1.09375 -5.6875 C 1.507812 -6.039062 2.035156 -6.21875 2.671875 -6.21875 Z M 2.546875 -1.203125 C 2.734375 -1.203125 2.898438 -1.265625 3.046875 -1.390625 C 3.191406 -1.515625 3.265625 -1.675781 3.265625 -1.875 L 3.265625 -2.4375 C 3.265625 -2.476562 3.242188 -2.5 3.203125 -2.5 L 2.71875 -2.5 C 2.5 -2.5 2.320312 -2.4375 2.1875 -2.3125 C 2.0625 -2.1875 2 -2.019531 2 -1.8125 C 2 -1.613281 2.046875 -1.460938 2.140625 -1.359375 C 2.242188 -1.253906 2.378906 -1.203125 2.546875 -1.203125 Z M 2.546875 -1.203125 "/></g></g></g><g fill="#ffffff" fill-opacity="1"><g transform="translate(73.649295, 12.115843)"><g><path d="M 2.625 0.09375 C 1.925781 0.09375 1.375 -0.0820312 0.96875 -0.4375 C 0.570312 -0.789062 0.375 -1.28125 0.375 -1.90625 L 0.375 -4.21875 C 0.375 -4.820312 0.570312 -5.304688 0.96875 -5.671875 C 1.375 -6.035156 1.925781 -6.21875 2.625 -6.21875 C 3.320312 -6.21875 3.867188 -6.035156 4.265625 -5.671875 C 4.671875 -5.316406 4.875 -4.851562 4.875 -4.28125 L 4.875 -4.078125 C 4.875 -4.035156 4.859375 -4 4.828125 -3.96875 C 4.796875 -3.9375 4.765625 -3.921875 4.734375 -3.921875 L 3.328125 -3.875 C 3.234375 -3.875 3.1875 -3.921875 3.1875 -4.015625 L 3.1875 -4.15625 C 3.1875 -4.332031 3.132812 -4.476562 3.03125 -4.59375 C 2.925781 -4.71875 2.789062 -4.78125 2.625 -4.78125 C 2.445312 -4.78125 2.304688 -4.710938 2.203125 -4.578125 C 2.097656 -4.453125 2.046875 -4.285156 2.046875 -4.078125 L 2.046875 -2.03125 C 2.046875 -1.820312 2.097656 -1.65625 2.203125 -1.53125 C 2.304688 -1.40625 2.445312 -1.34375 2.625 -1.34375 C 2.789062 -1.34375 2.925781 -1.40625 3.03125 -1.53125 C 3.132812 -1.65625 3.1875 -1.800781 3.1875 -1.96875 L 3.1875 -2.125 C 3.1875 -2.15625 3.203125 -2.1875 3.234375 -2.21875 C 3.265625 -2.25 3.296875 -2.265625 3.328125 -2.265625 L 4.734375 -2.25 C 4.765625 -2.25 4.796875 -2.234375 4.828125 -2.203125 C 4.859375 -2.179688 4.875 -2.148438 4.875 -2.109375 L 4.875 -1.828125 C 4.875 -1.242188 4.671875 -0.773438 4.265625 -0.421875 C 3.867188 -0.078125 3.320312 0.09375 2.625 0.09375 Z M 2.625 0.09375 "/></g></g></g><g fill="#ffffff" fill-opacity="1"><g transform="translate(78.815872, 12.115843)"><g><path d="M 0.59375 0 C 0.550781 0 0.515625 -0.0078125 0.484375 -0.03125 C 0.460938 -0.0625 0.453125 -0.0976562 0.453125 -0.140625 L 0.453125 -8.1875 C 0.453125 -8.226562 0.460938 -8.257812 0.484375 -8.28125 C 0.515625 -8.3125 0.550781 -8.328125 0.59375 -8.328125 L 1.984375 -8.328125 C 2.023438 -8.328125 2.054688 -8.3125 2.078125 -8.28125 C 2.109375 -8.257812 2.125 -8.226562 2.125 -8.1875 L 2.125 -4.25 C 2.125 -4.21875 2.128906 -4.195312 2.140625 -4.1875 C 2.160156 -4.1875 2.179688 -4.203125 2.203125 -4.234375 L 3.234375 -6.03125 C 3.265625 -6.09375 3.328125 -6.125 3.421875 -6.125 L 4.84375 -6.125 C 4.894531 -6.125 4.929688 -6.109375 4.953125 -6.078125 C 4.972656 -6.046875 4.96875 -6.003906 4.9375 -5.953125 L 3.65625 -3.953125 C 3.632812 -3.921875 3.628906 -3.894531 3.640625 -3.875 L 5.09375 -0.171875 C 5.101562 -0.148438 5.109375 -0.128906 5.109375 -0.109375 C 5.109375 -0.0351562 5.066406 0 4.984375 0 L 3.53125 0 C 3.457031 0 3.40625 -0.0390625 3.375 -0.125 L 2.625 -2.46875 C 2.613281 -2.5 2.597656 -2.515625 2.578125 -2.515625 C 2.566406 -2.523438 2.554688 -2.515625 2.546875 -2.484375 L 2.15625 -1.875 C 2.132812 -1.84375 2.125 -1.816406 2.125 -1.796875 L 2.125 -0.140625 C 2.125 -0.0976562 2.109375 -0.0625 2.078125 -0.03125 C 2.054688 -0.0078125 2.023438 0 1.984375 0 Z M 0.59375 0 "/></g></g></g><g fill="#ffffff" fill-opacity="1"><g transform="translate(84.161021, 12.115843)"><g><path d="M 1.296875 -6.8125 C 1.023438 -6.8125 0.800781 -6.898438 0.625 -7.078125 C 0.445312 -7.253906 0.359375 -7.476562 0.359375 -7.75 C 0.359375 -8.03125 0.441406 -8.253906 0.609375 -8.421875 C 0.785156 -8.597656 1.015625 -8.6875 1.296875 -8.6875 C 1.578125 -8.6875 1.800781 -8.597656 1.96875 -8.421875 C 2.132812 -8.253906 2.21875 -8.03125 2.21875 -7.75 C 2.21875 -7.476562 2.128906 -7.253906 1.953125 -7.078125 C 1.785156 -6.898438 1.566406 -6.8125 1.296875 -6.8125 Z M 0.625 0 C 0.582031 0 0.546875 -0.0078125 0.515625 -0.03125 C 0.484375 -0.0625 0.46875 -0.0976562 0.46875 -0.140625 L 0.46875 -5.984375 C 0.46875 -6.015625 0.484375 -6.046875 0.515625 -6.078125 C 0.546875 -6.109375 0.582031 -6.125 0.625 -6.125 L 2.015625 -6.125 C 2.054688 -6.125 2.085938 -6.109375 2.109375 -6.078125 C 2.140625 -6.046875 2.15625 -6.015625 2.15625 -5.984375 L 2.15625 -0.140625 C 2.15625 -0.0976562 2.140625 -0.0625 2.109375 -0.03125 C 2.085938 -0.0078125 2.054688 0 2.015625 0 Z M 0.625 0 "/></g></g></g><g fill="#ffffff" fill-opacity="1"><g transform="translate(86.768123, 12.115843)"><g><path d="M 3.296875 -6.21875 C 3.835938 -6.21875 4.242188 -6.035156 4.515625 -5.671875 C 4.785156 -5.316406 4.921875 -4.816406 4.921875 -4.171875 L 4.921875 -0.140625 C 4.921875 -0.0976562 4.90625 -0.0625 4.875 -0.03125 C 4.84375 -0.0078125 4.8125 0 4.78125 0 L 3.375 0 C 3.34375 0 3.3125 -0.0078125 3.28125 -0.03125 C 3.25 -0.0625 3.234375 -0.0976562 3.234375 -0.140625 L 3.234375 -4.046875 C 3.234375 -4.273438 3.1875 -4.453125 3.09375 -4.578125 C 3.007812 -4.710938 2.878906 -4.78125 2.703125 -4.78125 C 2.515625 -4.78125 2.367188 -4.710938 2.265625 -4.578125 C 2.171875 -4.441406 2.125 -4.257812 2.125 -4.03125 L 2.125 -0.140625 C 2.125 -0.0976562 2.109375 -0.0625 2.078125 -0.03125 C 2.054688 -0.0078125 2.023438 0 1.984375 0 L 0.59375 0 C 0.550781 0 0.515625 -0.0078125 0.484375 -0.03125 C 0.460938 -0.0625 0.453125 -0.0976562 0.453125 -0.140625 L 0.453125 -5.984375 C 0.453125 -6.015625 0.460938 -6.046875 0.484375 -6.078125 C 0.515625 -6.109375 0.550781 -6.125 0.59375 -6.125 L 1.984375 -6.125 C 2.023438 -6.125 2.054688 -6.109375 2.078125 -6.078125 C 2.109375 -6.046875 2.125 -6.015625 2.125 -5.984375 L 2.125 -5.75 C 2.125 -5.726562 2.132812 -5.71875 2.15625 -5.71875 C 2.175781 -5.71875 2.203125 -5.734375 2.234375 -5.765625 C 2.492188 -6.066406 2.847656 -6.21875 3.296875 -6.21875 Z M 3.296875 -6.21875 "/></g></g></g><g fill="#ffffff" fill-opacity="1"><g transform="translate(92.089459, 12.115843)"><g><path d="M 3.171875 -5.984375 C 3.171875 -6.015625 3.1875 -6.046875 3.21875 -6.078125 C 3.25 -6.109375 3.285156 -6.125 3.328125 -6.125 L 4.71875 -6.125 C 4.757812 -6.125 4.789062 -6.109375 4.8125 -6.078125 C 4.84375 -6.046875 4.859375 -6.015625 4.859375 -5.984375 L 4.859375 -0.28125 C 4.859375 0.59375 4.648438 1.269531 4.234375 1.75 C 3.816406 2.226562 3.066406 2.46875 1.984375 2.46875 C 1.773438 2.46875 1.609375 2.460938 1.484375 2.453125 C 1.390625 2.441406 1.34375 2.390625 1.34375 2.296875 L 1.34375 1.125 C 1.34375 1.019531 1.394531 0.976562 1.5 1 C 1.96875 1.019531 2.320312 0.972656 2.5625 0.859375 C 2.800781 0.753906 2.960938 0.59375 3.046875 0.375 C 3.128906 0.164062 3.171875 -0.113281 3.171875 -0.46875 C 3.171875 -0.488281 3.160156 -0.5 3.140625 -0.5 C 3.128906 -0.5 3.117188 -0.488281 3.109375 -0.46875 C 2.960938 -0.269531 2.785156 -0.132812 2.578125 -0.0625 C 2.378906 0.0078125 2.1875 0.046875 2 0.046875 C 1.445312 0.046875 1.035156 -0.128906 0.765625 -0.484375 C 0.503906 -0.835938 0.375 -1.328125 0.375 -1.953125 L 0.375 -4.21875 C 0.375 -4.851562 0.507812 -5.34375 0.78125 -5.6875 C 1.050781 -6.039062 1.457031 -6.21875 2 -6.21875 C 2.476562 -6.21875 2.847656 -6.035156 3.109375 -5.671875 C 3.117188 -5.648438 3.128906 -5.644531 3.140625 -5.65625 C 3.160156 -5.664062 3.171875 -5.679688 3.171875 -5.703125 Z M 2.609375 -1.40625 C 2.773438 -1.40625 2.910156 -1.46875 3.015625 -1.59375 C 3.117188 -1.71875 3.171875 -1.878906 3.171875 -2.078125 L 3.171875 -4.09375 C 3.171875 -4.289062 3.117188 -4.453125 3.015625 -4.578125 C 2.910156 -4.710938 2.773438 -4.78125 2.609375 -4.78125 C 2.441406 -4.78125 2.304688 -4.710938 2.203125 -4.578125 C 2.097656 -4.453125 2.046875 -4.289062 2.046875 -4.09375 L 2.046875 -2.078125 C 2.046875 -1.878906 2.097656 -1.71875 2.203125 -1.59375 C 2.304688 -1.46875 2.441406 -1.40625 2.609375 -1.40625 Z M 2.609375 -1.40625 "/></g></g></g><g fill="#ffffff" fill-opacity="1"><g transform="translate(13.102719, 23.837209)"><g><path d="M 0.671875 0 C 0.628906 0 0.59375 -0.0078125 0.5625 -0.03125 C 0.539062 -0.0625 0.53125 -0.0976562 0.53125 -0.140625 L 0.53125 -8.1875 C 0.53125 -8.226562 0.539062 -8.257812 0.5625 -8.28125 C 0.59375 -8.3125 0.628906 -8.328125 0.671875 -8.328125 L 2.0625 -8.328125 C 2.101562 -8.328125 2.132812 -8.3125 2.15625 -8.28125 C 2.1875 -8.257812 2.203125 -8.226562 2.203125 -8.1875 L 2.203125 -0.140625 C 2.203125 -0.0976562 2.1875 -0.0625 2.15625 -0.03125 C 2.132812 -0.0078125 2.101562 0 2.0625 0 Z M 0.671875 0 "/></g></g></g><g fill="#ffffff" fill-opacity="1"><g transform="translate(15.840767, 23.837209)"><g><path d="M 3.296875 -6.21875 C 3.835938 -6.21875 4.242188 -6.035156 4.515625 -5.671875 C 4.785156 -5.316406 4.921875 -4.816406 4.921875 -4.171875 L 4.921875 -0.140625 C 4.921875 -0.0976562 4.90625 -0.0625 4.875 -0.03125 C 4.84375 -0.0078125 4.8125 0 4.78125 0 L 3.375 0 C 3.34375 0 3.3125 -0.0078125 3.28125 -0.03125 C 3.25 -0.0625 3.234375 -0.0976562 3.234375 -0.140625 L 3.234375 -4.046875 C 3.234375 -4.273438 3.1875 -4.453125 3.09375 -4.578125 C 3.007812 -4.710938 2.878906 -4.78125 2.703125 -4.78125 C 2.515625 -4.78125 2.367188 -4.710938 2.265625 -4.578125 C 2.171875 -4.441406 2.125 -4.257812 2.125 -4.03125 L 2.125 -0.140625 C 2.125 -0.0976562 2.109375 -0.0625 2.078125 -0.03125 C 2.054688 -0.0078125 2.023438 0 1.984375 0 L 0.59375 0 C 0.550781 0 0.515625 -0.0078125 0.484375 -0.03125 C 0.460938 -0.0625 0.453125 -0.0976562 0.453125 -0.140625 L 0.453125 -5.984375 C 0.453125 -6.015625 0.460938 -6.046875 0.484375 -6.078125 C 0.515625 -6.109375 0.550781 -6.125 0.59375 -6.125 L 1.984375 -6.125 C 2.023438 -6.125 2.054688 -6.109375 2.078125 -6.078125 C 2.109375 -6.046875 2.125 -6.015625 2.125 -5.984375 L 2.125 -5.75 C 2.125 -5.726562 2.132812 -5.71875 2.15625 -5.71875 C 2.175781 -5.71875 2.203125 -5.734375 2.234375 -5.765625 C 2.492188 -6.066406 2.847656 -6.21875 3.296875 -6.21875 Z M 3.296875 -6.21875 "/></g></g></g><g fill="#ffffff" fill-opacity="1"><g transform="translate(21.162104, 23.837209)"><g><path d="M 3.15625 -6.125 C 3.195312 -6.125 3.226562 -6.109375 3.25 -6.078125 C 3.28125 -6.046875 3.296875 -6.015625 3.296875 -5.984375 L 3.296875 -5.078125 C 3.296875 -5.046875 3.28125 -5.015625 3.25 -4.984375 C 3.226562 -4.953125 3.195312 -4.9375 3.15625 -4.9375 L 2.5 -4.9375 C 2.457031 -4.9375 2.4375 -4.914062 2.4375 -4.875 L 2.4375 -0.140625 C 2.4375 -0.0976562 2.421875 -0.0625 2.390625 -0.03125 C 2.367188 -0.0078125 2.335938 0 2.296875 0 L 0.921875 0 C 0.878906 0 0.84375 -0.0078125 0.8125 -0.03125 C 0.789062 -0.0625 0.78125 -0.0976562 0.78125 -0.140625 L 0.78125 -4.875 C 0.78125 -4.914062 0.757812 -4.9375 0.71875 -4.9375 L 0.359375 -4.9375 C 0.316406 -4.9375 0.28125 -4.953125 0.25 -4.984375 C 0.226562 -5.015625 0.21875 -5.046875 0.21875 -5.078125 L 0.21875 -5.984375 C 0.21875 -6.015625 0.226562 -6.046875 0.25 -6.078125 C 0.28125 -6.109375 0.316406 -6.125 0.359375 -6.125 L 0.71875 -6.125 C 0.757812 -6.125 0.78125 -6.140625 0.78125 -6.171875 L 0.78125 -6.5 C 0.78125 -7.21875 0.957031 -7.710938 1.3125 -7.984375 C 1.675781 -8.253906 2.25 -8.382812 3.03125 -8.375 L 3.078125 -8.375 C 3.117188 -8.375 3.15625 -8.359375 3.1875 -8.328125 C 3.21875 -8.296875 3.234375 -8.265625 3.234375 -8.234375 L 3.21875 -7.28125 C 3.21875 -7.238281 3.203125 -7.203125 3.171875 -7.171875 C 3.140625 -7.140625 3.109375 -7.125 3.078125 -7.125 L 3.046875 -7.125 C 2.640625 -7.125 2.4375 -6.878906 2.4375 -6.390625 L 2.4375 -6.171875 C 2.4375 -6.140625 2.457031 -6.125 2.5 -6.125 Z M 3.15625 -6.125 "/></g></g></g><g fill="#ffffff" fill-opacity="1"><g transform="translate(24.709661, 23.837209)"><g><path d="M 2.625 0.09375 C 1.925781 0.09375 1.375 -0.0820312 0.96875 -0.4375 C 0.570312 -0.789062 0.375 -1.28125 0.375 -1.90625 L 0.375 -4.21875 C 0.375 -4.820312 0.570312 -5.304688 0.96875 -5.671875 C 1.375 -6.035156 1.925781 -6.21875 2.625 -6.21875 C 3.332031 -6.21875 3.890625 -6.035156 4.296875 -5.671875 C 4.703125 -5.304688 4.90625 -4.820312 4.90625 -4.21875 L 4.90625 -1.90625 C 4.90625 -1.28125 4.703125 -0.789062 4.296875 -0.4375 C 3.898438 -0.0820312 3.34375 0.09375 2.625 0.09375 Z M 2.625 -1.359375 C 2.800781 -1.359375 2.945312 -1.421875 3.0625 -1.546875 C 3.175781 -1.671875 3.234375 -1.832031 3.234375 -2.03125 L 3.234375 -4.09375 C 3.234375 -4.289062 3.175781 -4.453125 3.0625 -4.578125 C 2.945312 -4.710938 2.800781 -4.78125 2.625 -4.78125 C 2.457031 -4.78125 2.316406 -4.710938 2.203125 -4.578125 C 2.097656 -4.453125 2.046875 -4.289062 2.046875 -4.09375 L 2.046875 -2.03125 C 2.046875 -1.832031 2.097656 -1.671875 2.203125 -1.546875 C 2.316406 -1.421875 2.457031 -1.359375 2.625 -1.359375 Z M 2.625 -1.359375 "/></g></g></g><g fill="#ffffff" fill-opacity="1"><g transform="translate(29.971473, 23.837209)"><g><path d="M 3.1875 -6.1875 C 3.40625 -6.1875 3.570312 -6.148438 3.6875 -6.078125 C 3.75 -6.035156 3.773438 -5.972656 3.765625 -5.890625 L 3.53125 -4.5 C 3.53125 -4.414062 3.476562 -4.382812 3.375 -4.40625 C 3.28125 -4.4375 3.171875 -4.453125 3.046875 -4.453125 C 2.929688 -4.453125 2.828125 -4.4375 2.734375 -4.40625 C 2.554688 -4.375 2.410156 -4.265625 2.296875 -4.078125 C 2.179688 -3.890625 2.125 -3.671875 2.125 -3.421875 L 2.125 -0.15625 C 2.125 -0.113281 2.109375 -0.078125 2.078125 -0.046875 C 2.054688 -0.0234375 2.023438 -0.015625 1.984375 -0.015625 L 0.59375 -0.015625 C 0.550781 -0.015625 0.515625 -0.0234375 0.484375 -0.046875 C 0.460938 -0.078125 0.453125 -0.113281 0.453125 -0.15625 L 0.453125 -5.984375 C 0.453125 -6.015625 0.460938 -6.046875 0.484375 -6.078125 C 0.515625 -6.109375 0.550781 -6.125 0.59375 -6.125 L 1.984375 -6.125 C 2.023438 -6.125 2.054688 -6.109375 2.078125 -6.078125 C 2.109375 -6.046875 2.125 -6.015625 2.125 -5.984375 L 2.125 -5.515625 C 2.125 -5.484375 2.128906 -5.460938 2.140625 -5.453125 C 2.160156 -5.453125 2.175781 -5.460938 2.1875 -5.484375 C 2.40625 -5.953125 2.738281 -6.1875 3.1875 -6.1875 Z M 3.1875 -6.1875 "/></g></g></g><g fill="#ffffff" fill-opacity="1"><g transform="translate(33.82855, 23.837209)"><g><path d="M 6.015625 -6.21875 C 6.554688 -6.21875 6.957031 -6.035156 7.21875 -5.671875 C 7.488281 -5.304688 7.625 -4.789062 7.625 -4.125 L 7.625 -0.140625 C 7.625 -0.0976562 7.609375 -0.0625 7.578125 -0.03125 C 7.554688 -0.0078125 7.523438 0 7.484375 0 L 6.09375 0 C 6.050781 0 6.015625 -0.0078125 5.984375 -0.03125 C 5.960938 -0.0625 5.953125 -0.0976562 5.953125 -0.140625 L 5.953125 -4.03125 C 5.953125 -4.257812 5.90625 -4.441406 5.8125 -4.578125 C 5.71875 -4.710938 5.585938 -4.78125 5.421875 -4.78125 C 5.253906 -4.78125 5.117188 -4.710938 5.015625 -4.578125 C 4.921875 -4.441406 4.875 -4.257812 4.875 -4.03125 L 4.875 -0.140625 C 4.875 -0.0976562 4.859375 -0.0625 4.828125 -0.03125 C 4.796875 -0.0078125 4.765625 0 4.734375 0 L 3.34375 0 C 3.300781 0 3.265625 -0.0078125 3.234375 -0.03125 C 3.210938 -0.0625 3.203125 -0.0976562 3.203125 -0.140625 L 3.203125 -4.03125 C 3.203125 -4.257812 3.15625 -4.441406 3.0625 -4.578125 C 2.96875 -4.710938 2.835938 -4.78125 2.671875 -4.78125 C 2.503906 -4.78125 2.367188 -4.710938 2.265625 -4.578125 C 2.171875 -4.441406 2.125 -4.257812 2.125 -4.03125 L 2.125 -0.140625 C 2.125 -0.0976562 2.109375 -0.0625 2.078125 -0.03125 C 2.046875 -0.0078125 2.007812 0 1.96875 0 L 0.578125 0 C 0.546875 0 0.515625 -0.0078125 0.484375 -0.03125 C 0.453125 -0.0625 0.4375 -0.0976562 0.4375 -0.140625 L 0.4375 -5.984375 C 0.4375 -6.015625 0.453125 -6.046875 0.484375 -6.078125 C 0.515625 -6.109375 0.546875 -6.125 0.578125 -6.125 L 1.96875 -6.125 C 2.007812 -6.125 2.046875 -6.109375 2.078125 -6.078125 C 2.109375 -6.046875 2.125 -6.015625 2.125 -5.984375 L 2.125 -5.828125 C 2.125 -5.796875 2.128906 -5.773438 2.140625 -5.765625 C 2.160156 -5.765625 2.175781 -5.769531 2.1875 -5.78125 C 2.34375 -5.945312 2.515625 -6.0625 2.703125 -6.125 C 2.898438 -6.1875 3.085938 -6.21875 3.265625 -6.21875 C 3.878906 -6.21875 4.320312 -5.972656 4.59375 -5.484375 L 4.625 -5.46875 C 4.644531 -5.46875 4.671875 -5.488281 4.703125 -5.53125 C 4.867188 -5.789062 5.066406 -5.96875 5.296875 -6.0625 C 5.535156 -6.164062 5.773438 -6.21875 6.015625 -6.21875 Z M 6.015625 -6.21875 "/></g></g></g><g fill="#ffffff" fill-opacity="1"><g transform="translate(41.86413, 23.837209)"><g><path d="M 2.671875 -6.21875 C 3.335938 -6.21875 3.878906 -6.035156 4.296875 -5.671875 C 4.722656 -5.304688 4.9375 -4.828125 4.9375 -4.234375 L 4.9375 -0.140625 C 4.9375 -0.0976562 4.921875 -0.0625 4.890625 -0.03125 C 4.867188 -0.0078125 4.835938 0 4.796875 0 L 3.40625 0 C 3.363281 0 3.328125 -0.0078125 3.296875 -0.03125 C 3.273438 -0.0625 3.265625 -0.0976562 3.265625 -0.140625 L 3.265625 -0.40625 C 3.265625 -0.425781 3.253906 -0.441406 3.234375 -0.453125 C 3.222656 -0.460938 3.207031 -0.453125 3.1875 -0.421875 C 2.925781 -0.0859375 2.519531 0.0820312 1.96875 0.09375 C 1.507812 0.09375 1.113281 -0.03125 0.78125 -0.28125 C 0.445312 -0.539062 0.28125 -1.023438 0.28125 -1.734375 C 0.28125 -2.472656 0.484375 -2.976562 0.890625 -3.25 C 1.296875 -3.53125 1.882812 -3.671875 2.65625 -3.671875 L 3.203125 -3.671875 C 3.242188 -3.671875 3.265625 -3.691406 3.265625 -3.734375 L 3.265625 -4.03125 C 3.265625 -4.25 3.207031 -4.425781 3.09375 -4.5625 C 2.976562 -4.707031 2.832031 -4.78125 2.65625 -4.78125 C 2.519531 -4.78125 2.40625 -4.738281 2.3125 -4.65625 C 2.21875 -4.570312 2.160156 -4.453125 2.140625 -4.296875 C 2.128906 -4.203125 2.078125 -4.15625 1.984375 -4.15625 L 0.5625 -4.171875 C 0.46875 -4.171875 0.421875 -4.21875 0.421875 -4.3125 C 0.453125 -4.882812 0.675781 -5.34375 1.09375 -5.6875 C 1.507812 -6.039062 2.035156 -6.21875 2.671875 -6.21875 Z M 2.546875 -1.203125 C 2.734375 -1.203125 2.898438 -1.265625 3.046875 -1.390625 C 3.191406 -1.515625 3.265625 -1.675781 3.265625 -1.875 L 3.265625 -2.4375 C 3.265625 -2.476562 3.242188 -2.5 3.203125 -2.5 L 2.71875 -2.5 C 2.5 -2.5 2.320312 -2.4375 2.1875 -2.3125 C 2.0625 -2.1875 2 -2.019531 2 -1.8125 C 2 -1.613281 2.046875 -1.460938 2.140625 -1.359375 C 2.242188 -1.253906 2.378906 -1.203125 2.546875 -1.203125 Z M 2.546875 -1.203125 "/></g></g></g><g fill="#ffffff" fill-opacity="1"><g transform="translate(47.17356, 23.837209)"><g><path d="M 3.234375 -5.078125 C 3.234375 -5.046875 3.21875 -5.015625 3.1875 -4.984375 C 3.164062 -4.953125 3.132812 -4.9375 3.09375 -4.9375 L 2.421875 -4.9375 C 2.390625 -4.9375 2.375 -4.914062 2.375 -4.875 L 2.375 -2.046875 C 2.375 -1.816406 2.414062 -1.65625 2.5 -1.5625 C 2.582031 -1.476562 2.710938 -1.441406 2.890625 -1.453125 L 2.96875 -1.453125 C 3.007812 -1.453125 3.046875 -1.4375 3.078125 -1.40625 C 3.109375 -1.382812 3.125 -1.351562 3.125 -1.3125 L 3.125 -0.140625 C 3.125 -0.0976562 3.109375 -0.0625 3.078125 -0.03125 C 3.046875 -0.0078125 3.007812 0 2.96875 0 L 2.5 0 C 1.914062 0 1.476562 -0.09375 1.1875 -0.28125 C 0.894531 -0.476562 0.75 -0.851562 0.75 -1.40625 L 0.75 -4.875 C 0.75 -4.914062 0.726562 -4.9375 0.6875 -4.9375 L 0.296875 -4.9375 C 0.253906 -4.9375 0.21875 -4.953125 0.1875 -4.984375 C 0.164062 -5.015625 0.15625 -5.046875 0.15625 -5.078125 L 0.15625 -5.984375 C 0.15625 -6.015625 0.164062 -6.046875 0.1875 -6.078125 C 0.21875 -6.109375 0.253906 -6.125 0.296875 -6.125 L 0.6875 -6.125 C 0.726562 -6.125 0.75 -6.140625 0.75 -6.171875 L 0.75 -7.5 C 0.75 -7.539062 0.757812 -7.570312 0.78125 -7.59375 C 0.8125 -7.625 0.847656 -7.640625 0.890625 -7.640625 L 2.21875 -7.640625 C 2.257812 -7.640625 2.296875 -7.625 2.328125 -7.59375 C 2.359375 -7.570312 2.375 -7.539062 2.375 -7.5 L 2.375 -6.171875 C 2.375 -6.140625 2.390625 -6.125 2.421875 -6.125 L 3.09375 -6.125 C 3.132812 -6.125 3.164062 -6.109375 3.1875 -6.078125 C 3.21875 -6.046875 3.234375 -6.015625 3.234375 -5.984375 Z M 3.234375 -5.078125 "/></g></g></g><g fill="#ffffff" fill-opacity="1"><g transform="translate(50.637789, 23.837209)"><g><path d="M 1.296875 -6.8125 C 1.023438 -6.8125 0.800781 -6.898438 0.625 -7.078125 C 0.445312 -7.253906 0.359375 -7.476562 0.359375 -7.75 C 0.359375 -8.03125 0.441406 -8.253906 0.609375 -8.421875 C 0.785156 -8.597656 1.015625 -8.6875 1.296875 -8.6875 C 1.578125 -8.6875 1.800781 -8.597656 1.96875 -8.421875 C 2.132812 -8.253906 2.21875 -8.03125 2.21875 -7.75 C 2.21875 -7.476562 2.128906 -7.253906 1.953125 -7.078125 C 1.785156 -6.898438 1.566406 -6.8125 1.296875 -6.8125 Z M 0.625 0 C 0.582031 0 0.546875 -0.0078125 0.515625 -0.03125 C 0.484375 -0.0625 0.46875 -0.0976562 0.46875 -0.140625 L 0.46875 -5.984375 C 0.46875 -6.015625 0.484375 -6.046875 0.515625 -6.078125 C 0.546875 -6.109375 0.582031 -6.125 0.625 -6.125 L 2.015625 -6.125 C 2.054688 -6.125 2.085938 -6.109375 2.109375 -6.078125 C 2.140625 -6.046875 2.15625 -6.015625 2.15625 -5.984375 L 2.15625 -0.140625 C 2.15625 -0.0976562 2.140625 -0.0625 2.109375 -0.03125 C 2.085938 -0.0078125 2.054688 0 2.015625 0 Z M 0.625 0 "/></g></g></g><g fill="#ffffff" fill-opacity="1"><g transform="translate(53.24489, 23.837209)"><g><path d="M 2.625 0.09375 C 1.925781 0.09375 1.375 -0.0820312 0.96875 -0.4375 C 0.570312 -0.789062 0.375 -1.28125 0.375 -1.90625 L 0.375 -4.21875 C 0.375 -4.820312 0.570312 -5.304688 0.96875 -5.671875 C 1.375 -6.035156 1.925781 -6.21875 2.625 -6.21875 C 3.332031 -6.21875 3.890625 -6.035156 4.296875 -5.671875 C 4.703125 -5.304688 4.90625 -4.820312 4.90625 -4.21875 L 4.90625 -1.90625 C 4.90625 -1.28125 4.703125 -0.789062 4.296875 -0.4375 C 3.898438 -0.0820312 3.34375 0.09375 2.625 0.09375 Z M 2.625 -1.359375 C 2.800781 -1.359375 2.945312 -1.421875 3.0625 -1.546875 C 3.175781 -1.671875 3.234375 -1.832031 3.234375 -2.03125 L 3.234375 -4.09375 C 3.234375 -4.289062 3.175781 -4.453125 3.0625 -4.578125 C 2.945312 -4.710938 2.800781 -4.78125 2.625 -4.78125 C 2.457031 -4.78125 2.316406 -4.710938 2.203125 -4.578125 C 2.097656 -4.453125 2.046875 -4.289062 2.046875 -4.09375 L 2.046875 -2.03125 C 2.046875 -1.832031 2.097656 -1.671875 2.203125 -1.546875 C 2.316406 -1.421875 2.457031 -1.359375 2.625 -1.359375 Z M 2.625 -1.359375 "/></g></g></g><g fill="#ffffff" fill-opacity="1"><g transform="translate(58.506702, 23.837209)"><g><path d="M 3.296875 -6.21875 C 3.835938 -6.21875 4.242188 -6.035156 4.515625 -5.671875 C 4.785156 -5.316406 4.921875 -4.816406 4.921875 -4.171875 L 4.921875 -0.140625 C 4.921875 -0.0976562 4.90625 -0.0625 4.875 -0.03125 C 4.84375 -0.0078125 4.8125 0 4.78125 0 L 3.375 0 C 3.34375 0 3.3125 -0.0078125 3.28125 -0.03125 C 3.25 -0.0625 3.234375 -0.0976562 3.234375 -0.140625 L 3.234375 -4.046875 C 3.234375 -4.273438 3.1875 -4.453125 3.09375 -4.578125 C 3.007812 -4.710938 2.878906 -4.78125 2.703125 -4.78125 C 2.515625 -4.78125 2.367188 -4.710938 2.265625 -4.578125 C 2.171875 -4.441406 2.125 -4.257812 2.125 -4.03125 L 2.125 -0.140625 C 2.125 -0.0976562 2.109375 -0.0625 2.078125 -0.03125 C 2.054688 -0.0078125 2.023438 0 1.984375 0 L 0.59375 0 C 0.550781 0 0.515625 -0.0078125 0.484375 -0.03125 C 0.460938 -0.0625 0.453125 -0.0976562 0.453125 -0.140625 L 0.453125 -5.984375 C 0.453125 -6.015625 0.460938 -6.046875 0.484375 -6.078125 C 0.515625 -6.109375 0.550781 -6.125 0.59375 -6.125 L 1.984375 -6.125 C 2.023438 -6.125 2.054688 -6.109375 2.078125 -6.078125 C 2.109375 -6.046875 2.125 -6.015625 2.125 -5.984375 L 2.125 -5.75 C 2.125 -5.726562 2.132812 -5.71875 2.15625 -5.71875 C 2.175781 -5.71875 2.203125 -5.734375 2.234375 -5.765625 C 2.492188 -6.066406 2.847656 -6.21875 3.296875 -6.21875 Z M 3.296875 -6.21875 "/></g></g></g><g fill="#ffffff" fill-opacity="1"><g transform="translate(63.828039, 23.837209)"><g/></g></g><g fill="#ffffff" fill-opacity="1"><g transform="translate(66.20895, 23.837209)"><g><path d="M 2.671875 0.09375 C 2.203125 0.09375 1.789062 0.00390625 1.4375 -0.171875 C 1.09375 -0.359375 0.828125 -0.613281 0.640625 -0.9375 C 0.453125 -1.269531 0.359375 -1.648438 0.359375 -2.078125 L 0.359375 -2.421875 C 0.359375 -2.460938 0.367188 -2.5 0.390625 -2.53125 C 0.421875 -2.5625 0.457031 -2.578125 0.5 -2.578125 L 1.875 -2.578125 C 1.90625 -2.578125 1.9375 -2.5625 1.96875 -2.53125 C 2 -2.5 2.015625 -2.460938 2.015625 -2.421875 L 2.015625 -2.171875 C 2.015625 -1.921875 2.078125 -1.71875 2.203125 -1.5625 C 2.328125 -1.414062 2.484375 -1.34375 2.671875 -1.34375 C 2.867188 -1.34375 3.03125 -1.414062 3.15625 -1.5625 C 3.28125 -1.707031 3.34375 -1.894531 3.34375 -2.125 C 3.34375 -2.351562 3.265625 -2.550781 3.109375 -2.71875 C 2.953125 -2.894531 2.640625 -3.148438 2.171875 -3.484375 C 1.773438 -3.773438 1.453125 -4.03125 1.203125 -4.25 C 0.960938 -4.46875 0.753906 -4.738281 0.578125 -5.0625 C 0.410156 -5.394531 0.328125 -5.773438 0.328125 -6.203125 C 0.328125 -6.878906 0.535156 -7.414062 0.953125 -7.8125 C 1.367188 -8.21875 1.925781 -8.421875 2.625 -8.421875 C 3.320312 -8.421875 3.878906 -8.210938 4.296875 -7.796875 C 4.722656 -7.378906 4.9375 -6.828125 4.9375 -6.140625 L 4.9375 -5.859375 C 4.9375 -5.816406 4.921875 -5.78125 4.890625 -5.75 C 4.867188 -5.726562 4.835938 -5.71875 4.796875 -5.71875 L 3.421875 -5.71875 C 3.390625 -5.71875 3.359375 -5.726562 3.328125 -5.75 C 3.296875 -5.78125 3.28125 -5.816406 3.28125 -5.859375 L 3.28125 -6.171875 C 3.28125 -6.421875 3.21875 -6.617188 3.09375 -6.765625 C 2.976562 -6.910156 2.820312 -6.984375 2.625 -6.984375 C 2.425781 -6.984375 2.265625 -6.914062 2.140625 -6.78125 C 2.023438 -6.644531 1.96875 -6.453125 1.96875 -6.203125 C 1.96875 -5.960938 2.039062 -5.75 2.1875 -5.5625 C 2.34375 -5.382812 2.644531 -5.132812 3.09375 -4.8125 C 3.582031 -4.445312 3.953125 -4.148438 4.203125 -3.921875 C 4.453125 -3.691406 4.644531 -3.441406 4.78125 -3.171875 C 4.925781 -2.898438 5 -2.570312 5 -2.1875 C 5 -1.488281 4.785156 -0.929688 4.359375 -0.515625 C 3.929688 -0.109375 3.367188 0.09375 2.671875 0.09375 Z M 2.671875 0.09375 "/></g></g></g><g fill="#ffffff" fill-opacity="1"><g transform="translate(71.494575, 23.837209)"><g><path d="M 0.453125 2.375 C 0.429688 2.375 0.410156 2.359375 0.390625 2.328125 C 0.378906 2.296875 0.375 2.257812 0.375 2.21875 L 0.375 1.125 C 0.375 1.03125 0.410156 0.984375 0.484375 0.984375 C 0.898438 0.972656 1.191406 0.90625 1.359375 0.78125 C 1.535156 0.664062 1.640625 0.414062 1.671875 0.03125 L 1.65625 -0.03125 L 0.15625 -5.984375 L 0.15625 -6.03125 C 0.15625 -6.09375 0.195312 -6.125 0.28125 -6.125 L 1.78125 -6.125 C 1.875 -6.125 1.925781 -6.082031 1.9375 -6 L 2.484375 -2.46875 C 2.492188 -2.4375 2.503906 -2.421875 2.515625 -2.421875 C 2.535156 -2.421875 2.550781 -2.4375 2.5625 -2.46875 L 3.078125 -6 C 3.085938 -6.082031 3.140625 -6.125 3.234375 -6.125 L 4.734375 -6.109375 C 4.847656 -6.109375 4.894531 -6.054688 4.875 -5.953125 L 3.296875 0.21875 C 3.140625 0.800781 2.972656 1.238281 2.796875 1.53125 C 2.617188 1.820312 2.351562 2.035156 2 2.171875 C 1.65625 2.304688 1.160156 2.375 0.515625 2.375 Z M 0.453125 2.375 "/></g></g></g><g fill="#ffffff" fill-opacity="1"><g transform="translate(76.530205, 23.837209)"><g><path d="M 2.5 0.078125 C 1.820312 0.078125 1.28125 -0.078125 0.875 -0.390625 C 0.476562 -0.710938 0.28125 -1.144531 0.28125 -1.6875 L 0.28125 -1.78125 C 0.28125 -1.8125 0.296875 -1.84375 0.328125 -1.875 C 0.359375 -1.90625 0.390625 -1.921875 0.421875 -1.921875 L 1.734375 -1.921875 C 1.773438 -1.921875 1.804688 -1.90625 1.828125 -1.875 C 1.859375 -1.84375 1.875 -1.8125 1.875 -1.78125 L 1.875 -1.734375 C 1.875 -1.566406 1.929688 -1.429688 2.046875 -1.328125 C 2.171875 -1.222656 2.320312 -1.171875 2.5 -1.171875 C 2.65625 -1.171875 2.78125 -1.210938 2.875 -1.296875 C 2.96875 -1.390625 3.015625 -1.507812 3.015625 -1.65625 C 3.015625 -1.832031 2.9375 -1.96875 2.78125 -2.0625 C 2.632812 -2.164062 2.46875 -2.25 2.28125 -2.3125 C 2.09375 -2.382812 1.960938 -2.429688 1.890625 -2.453125 C 1.453125 -2.609375 1.082031 -2.828125 0.78125 -3.109375 C 0.488281 -3.390625 0.34375 -3.796875 0.34375 -4.328125 C 0.34375 -4.910156 0.53125 -5.367188 0.90625 -5.703125 C 1.289062 -6.035156 1.800781 -6.203125 2.4375 -6.203125 C 3.09375 -6.203125 3.613281 -6.023438 4 -5.671875 C 4.382812 -5.328125 4.578125 -4.859375 4.578125 -4.265625 C 4.578125 -4.222656 4.5625 -4.1875 4.53125 -4.15625 C 4.507812 -4.132812 4.476562 -4.125 4.4375 -4.125 L 3.171875 -4.125 C 3.128906 -4.125 3.09375 -4.132812 3.0625 -4.15625 C 3.039062 -4.1875 3.03125 -4.222656 3.03125 -4.265625 L 3.03125 -4.359375 C 3.03125 -4.515625 2.976562 -4.640625 2.875 -4.734375 C 2.769531 -4.835938 2.640625 -4.890625 2.484375 -4.890625 C 2.316406 -4.890625 2.1875 -4.835938 2.09375 -4.734375 C 2 -4.628906 1.953125 -4.503906 1.953125 -4.359375 C 1.953125 -4.171875 2.03125 -4.019531 2.1875 -3.90625 C 2.351562 -3.800781 2.601562 -3.6875 2.9375 -3.5625 C 3.28125 -3.4375 3.570312 -3.304688 3.8125 -3.171875 C 4.050781 -3.035156 4.257812 -2.847656 4.4375 -2.609375 C 4.613281 -2.367188 4.703125 -2.066406 4.703125 -1.703125 C 4.703125 -1.148438 4.5 -0.710938 4.09375 -0.390625 C 3.695312 -0.078125 3.164062 0.078125 2.5 0.078125 Z M 2.5 0.078125 "/></g></g></g><g fill="#ffffff" fill-opacity="1"><g transform="translate(81.43488, 23.837209)"><g><path d="M 3.234375 -5.078125 C 3.234375 -5.046875 3.21875 -5.015625 3.1875 -4.984375 C 3.164062 -4.953125 3.132812 -4.9375 3.09375 -4.9375 L 2.421875 -4.9375 C 2.390625 -4.9375 2.375 -4.914062 2.375 -4.875 L 2.375 -2.046875 C 2.375 -1.816406 2.414062 -1.65625 2.5 -1.5625 C 2.582031 -1.476562 2.710938 -1.441406 2.890625 -1.453125 L 2.96875 -1.453125 C 3.007812 -1.453125 3.046875 -1.4375 3.078125 -1.40625 C 3.109375 -1.382812 3.125 -1.351562 3.125 -1.3125 L 3.125 -0.140625 C 3.125 -0.0976562 3.109375 -0.0625 3.078125 -0.03125 C 3.046875 -0.0078125 3.007812 0 2.96875 0 L 2.5 0 C 1.914062 0 1.476562 -0.09375 1.1875 -0.28125 C 0.894531 -0.476562 0.75 -0.851562 0.75 -1.40625 L 0.75 -4.875 C 0.75 -4.914062 0.726562 -4.9375 0.6875 -4.9375 L 0.296875 -4.9375 C 0.253906 -4.9375 0.21875 -4.953125 0.1875 -4.984375 C 0.164062 -5.015625 0.15625 -5.046875 0.15625 -5.078125 L 0.15625 -5.984375 C 0.15625 -6.015625 0.164062 -6.046875 0.1875 -6.078125 C 0.21875 -6.109375 0.253906 -6.125 0.296875 -6.125 L 0.6875 -6.125 C 0.726562 -6.125 0.75 -6.140625 0.75 -6.171875 L 0.75 -7.5 C 0.75 -7.539062 0.757812 -7.570312 0.78125 -7.59375 C 0.8125 -7.625 0.847656 -7.640625 0.890625 -7.640625 L 2.21875 -7.640625 C 2.257812 -7.640625 2.296875 -7.625 2.328125 -7.59375 C 2.359375 -7.570312 2.375 -7.539062 2.375 -7.5 L 2.375 -6.171875 C 2.375 -6.140625 2.390625 -6.125 2.421875 -6.125 L 3.09375 -6.125 C 3.132812 -6.125 3.164062 -6.109375 3.1875 -6.078125 C 3.21875 -6.046875 3.234375 -6.015625 3.234375 -5.984375 Z M 3.234375 -5.078125 "/></g></g></g><g fill="#ffffff" fill-opacity="1"><g transform="translate(84.899109, 23.837209)"><g><path d="M 4.875 -2.671875 C 4.875 -2.640625 4.859375 -2.609375 4.828125 -2.578125 C 4.796875 -2.546875 4.765625 -2.53125 4.734375 -2.53125 L 2.109375 -2.53125 C 2.066406 -2.53125 2.046875 -2.507812 2.046875 -2.46875 L 2.046875 -2.03125 C 2.046875 -1.832031 2.097656 -1.664062 2.203125 -1.53125 C 2.316406 -1.40625 2.457031 -1.34375 2.625 -1.34375 C 2.769531 -1.34375 2.890625 -1.390625 2.984375 -1.484375 C 3.078125 -1.585938 3.140625 -1.71875 3.171875 -1.875 C 3.203125 -1.945312 3.253906 -1.984375 3.328125 -1.984375 L 4.703125 -1.921875 C 4.742188 -1.921875 4.773438 -1.90625 4.796875 -1.875 C 4.828125 -1.84375 4.835938 -1.804688 4.828125 -1.765625 C 4.773438 -1.148438 4.5625 -0.6875 4.1875 -0.375 C 3.820312 -0.0625 3.300781 0.09375 2.625 0.09375 C 1.914062 0.09375 1.363281 -0.0820312 0.96875 -0.4375 C 0.570312 -0.789062 0.375 -1.28125 0.375 -1.90625 L 0.375 -4.21875 C 0.375 -4.820312 0.570312 -5.304688 0.96875 -5.671875 C 1.375 -6.035156 1.925781 -6.21875 2.625 -6.21875 C 3.320312 -6.21875 3.867188 -6.035156 4.265625 -5.671875 C 4.671875 -5.304688 4.875 -4.820312 4.875 -4.21875 Z M 2.625 -4.78125 C 2.457031 -4.78125 2.316406 -4.710938 2.203125 -4.578125 C 2.097656 -4.453125 2.046875 -4.289062 2.046875 -4.09375 L 2.046875 -3.625 C 2.046875 -3.59375 2.066406 -3.578125 2.109375 -3.578125 L 3.125 -3.578125 C 3.164062 -3.578125 3.1875 -3.59375 3.1875 -3.625 L 3.1875 -4.09375 C 3.1875 -4.289062 3.132812 -4.453125 3.03125 -4.578125 C 2.925781 -4.710938 2.789062 -4.78125 2.625 -4.78125 Z M 2.625 -4.78125 "/></g></g></g><g fill="#ffffff" fill-opacity="1"><g transform="translate(90.089498, 23.837209)"><g><path d="M 6.015625 -6.21875 C 6.554688 -6.21875 6.957031 -6.035156 7.21875 -5.671875 C 7.488281 -5.304688 7.625 -4.789062 7.625 -4.125 L 7.625 -0.140625 C 7.625 -0.0976562 7.609375 -0.0625 7.578125 -0.03125 C 7.554688 -0.0078125 7.523438 0 7.484375 0 L 6.09375 0 C 6.050781 0 6.015625 -0.0078125 5.984375 -0.03125 C 5.960938 -0.0625 5.953125 -0.0976562 5.953125 -0.140625 L 5.953125 -4.03125 C 5.953125 -4.257812 5.90625 -4.441406 5.8125 -4.578125 C 5.71875 -4.710938 5.585938 -4.78125 5.421875 -4.78125 C 5.253906 -4.78125 5.117188 -4.710938 5.015625 -4.578125 C 4.921875 -4.441406 4.875 -4.257812 4.875 -4.03125 L 4.875 -0.140625 C 4.875 -0.0976562 4.859375 -0.0625 4.828125 -0.03125 C 4.796875 -0.0078125 4.765625 0 4.734375 0 L 3.34375 0 C 3.300781 0 3.265625 -0.0078125 3.234375 -0.03125 C 3.210938 -0.0625 3.203125 -0.0976562 3.203125 -0.140625 L 3.203125 -4.03125 C 3.203125 -4.257812 3.15625 -4.441406 3.0625 -4.578125 C 2.96875 -4.710938 2.835938 -4.78125 2.671875 -4.78125 C 2.503906 -4.78125 2.367188 -4.710938 2.265625 -4.578125 C 2.171875 -4.441406 2.125 -4.257812 2.125 -4.03125 L 2.125 -0.140625 C 2.125 -0.0976562 2.109375 -0.0625 2.078125 -0.03125 C 2.046875 -0.0078125 2.007812 0 1.96875 0 L 0.578125 0 C 0.546875 0 0.515625 -0.0078125 0.484375 -0.03125 C 0.453125 -0.0625 0.4375 -0.0976562 0.4375 -0.140625 L 0.4375 -5.984375 C 0.4375 -6.015625 0.453125 -6.046875 0.484375 -6.078125 C 0.515625 -6.109375 0.546875 -6.125 0.578125 -6.125 L 1.96875 -6.125 C 2.007812 -6.125 2.046875 -6.109375 2.078125 -6.078125 C 2.109375 -6.046875 2.125 -6.015625 2.125 -5.984375 L 2.125 -5.828125 C 2.125 -5.796875 2.128906 -5.773438 2.140625 -5.765625 C 2.160156 -5.765625 2.175781 -5.769531 2.1875 -5.78125 C 2.34375 -5.945312 2.515625 -6.0625 2.703125 -6.125 C 2.898438 -6.1875 3.085938 -6.21875 3.265625 -6.21875 C 3.878906 -6.21875 4.320312 -5.972656 4.59375 -5.484375 L 4.625 -5.46875 C 4.644531 -5.46875 4.671875 -5.488281 4.703125 -5.53125 C 4.867188 -5.789062 5.066406 -5.96875 5.296875 -6.0625 C 5.535156 -6.164062 5.773438 -6.21875 6.015625 -6.21875 Z M 6.015625 -6.21875 "/></g></g></g></svg>